#N canvas 269 105 1038 770 10;
#X obj 984 77 pack f f;
#X obj 1002 48 t b f;
#X obj 970 18 ctlin;
#X obj 41 105 Waveshape-Controls;
#X obj 41 34 notein;
#X obj 512 69 bendin;
#X obj 164 616 ctlin 1;
#X obj 41 678 Waveshape-Mono-Engine;
#X obj 178 678 Waveshape-Poly8-Engine;
#X obj 748 56 touchin;
#X obj 41 707 Waveshape-AudioOutput;
#X obj 164 639 expr pow(2 \, $f1/12);
#X obj 748 80 expr ($f1/282) + 0.25;
#X connect 0 0 3 4;
#X connect 1 0 0 0;
#X connect 1 1 0 1;
#X connect 2 0 1 0;
#X connect 2 1 0 0;
#X connect 3 0 7 0;
#X connect 3 0 8 0;
#X connect 3 1 7 1;
#X connect 3 1 8 1;
#X connect 4 0 3 0;
#X connect 4 1 3 1;
#X connect 5 0 3 2;
#X connect 6 0 11 0;
#X connect 7 0 10 0;
#X connect 9 0 12 0;
#X connect 11 0 7 2;
#X connect 12 0 3 3;
