#N canvas 552 180 451 378 10;
#X obj 22 117 route 1 2 3 4 5 6 7 8;
#X obj 22 280 expr~ ($v1+$v2+$v3+$v4+$v5+$v6+$v7+$v8);
#X obj 22 326 hip~ 22;
#X obj 22 244 WSVox;
#X obj 62 244 WSVox;
#X obj 102 244 WSVox;
#X obj 142 244 WSVox;
#X obj 183 244 WSVox;
#X obj 224 244 WSVox;
#X obj 265 244 WSVox;
#X obj 306 244 WSVox;
#X obj 22 350 outlet~;
#X obj 36 4 inlet MidiPitchVelADSR;
#X obj 347 4 inlet RealtimeUI;
#N canvas 183 199 274 104 SoftLimiter 0;
#X obj 8 6 inlet~;
#X obj 8 52 outlet~;
#X obj 8 29 expr~ (1.5*$v1)-(pow($v1 \, 3)*0.5);
#X connect 0 0 2 0;
#X connect 2 0 1 0;
#X restore 22 303 pd SoftLimiter;
#X obj 22 92 pack f f f f f f f f f f f f f f;
#X obj 36 29 unpack f f f f f f f f f f f f f;
#X obj 6 62 poly 8 1;
#X connect 0 0 3 0;
#X connect 0 1 4 0;
#X connect 0 2 5 0;
#X connect 0 3 6 0;
#X connect 0 4 7 0;
#X connect 0 5 8 0;
#X connect 0 6 9 0;
#X connect 0 7 10 0;
#X connect 1 0 14 0;
#X connect 2 0 11 0;
#X connect 3 0 1 0;
#X connect 4 0 1 1;
#X connect 5 0 1 2;
#X connect 6 0 1 3;
#X connect 7 0 1 4;
#X connect 8 0 1 5;
#X connect 9 0 1 6;
#X connect 10 0 1 7;
#X connect 12 0 16 0;
#X connect 13 0 3 1;
#X connect 13 0 4 1;
#X connect 13 0 5 1;
#X connect 13 0 6 1;
#X connect 13 0 7 1;
#X connect 13 0 8 1;
#X connect 13 0 9 1;
#X connect 13 0 10 1;
#X connect 14 0 2 0;
#X connect 15 0 0 0;
#X connect 16 0 17 0;
#X connect 16 1 17 1;
#X connect 16 2 15 3;
#X connect 16 3 15 4;
#X connect 16 4 15 5;
#X connect 16 5 15 6;
#X connect 16 6 15 7;
#X connect 16 7 15 8;
#X connect 16 8 15 9;
#X connect 16 9 15 10;
#X connect 16 10 15 11;
#X connect 16 11 15 12;
#X connect 16 12 15 13;
#X connect 17 0 15 0;
#X connect 17 1 15 1;
#X connect 17 2 15 2;
