#N canvas 76 96 928 479 10;
#X obj -685 -736 vsl 20 135 0.01 0.2 1 1 \$0-Volume empty Volume 0
-9 0 10 -232576 -1 -1 13400 1;
#X obj -384 -570 vsl 50 256 -0.6 0.8 0 1 \$0-K empty Warp 0 -9 0 10
-203904 -1 -1 5400 1;
#X obj -334 -570 vsl 50 256 0 1 0 1 \$0-Blend empty Blend 0 -9 0 10
-203904 -1 -1 18700 1;
#X obj -284 -570 vsl 50 256 0 2 0 1 \$0-Rectify empty Rectify 0 -9
0 10 -203904 -1 -1 21500 1;
#X obj -23 -648 hsl 256 30 0.3 1000 1 1 \$0-Attack empty Attack -2
-8 0 10 -204786 -1 -1 5100 1;
#X obj -22 -495 hsl 256 30 1 1000 1 1 \$0-Release empty Release -2
-8 0 10 -204786 -1 -1 8600 1;
#X obj -23 -596 hsl 256 30 1 5001 1 1 \$0-Decay empty Decay -2 -8 0
10 -204786 -1 -1 9500 1;
#X obj -23 -546 hsl 256 30 0.0001 1 0 1 \$0-Sustain empty Sustain -2
-8 0 10 -204786 -1 -1 20600 1;
#X floatatom 203 -664 5 0 0 0 - #0-Attack -, f 5;
#X floatatom 203 -612 5 0 0 0 - #0-DecayValue -, f 5;
#X floatatom 204 -511 5 0 0 0 - #0-Release -, f 5;
#X obj -490 -736 vradio 15 1 0 5 \$0-BendRange empty empty 0 -8 0 10
-162280 -1 -1 0;
#X text -473 -736 2 Semitones;
#X text -473 -720 3 Semitones;
#X text -473 -705 4 Semitones;
#X text -472 -690 Half Octave;
#X text -471 -675 Full Octave;
#X text -492 -751 Pitch Bend Range;
#X obj -134 -570 vsl 50 256 0.1 6000 1 1 \$0-FM empty FM_Freq 0 -9
0 10 -262130 -1 -1 10200 1;
#X obj -184 -570 vsl 50 256 0 0.6 0 1 \$0-OscUpMix empty Level 0 -9
0 10 -261682 -1 -1 22600 1;
#X obj -84 -570 vsl 50 256 0 1 0 1 \$0-FMDepth empty FM_Depth 0 -9
0 10 -262130 -1 -1 25500 1;
#X obj -684 -570 vsl 50 256 0 0.8 0 1 \$0-SubLevel empty Sub 0 -9 0
10 -260097 -1 -1 15300 1;
#X obj -22 -444 hsl 256 30 0.3 2000 1 1 \$0-FMAttack empty FM_Attack
-2 -8 0 10 -4034 -1 -1 16500 1;
#X obj -21 -393 hsl 256 30 1 5001 1 1 \$0-FMDecay empty FM_Decay -2
-8 0 10 -4034 -1 -1 11900 1;
#X obj -21 -340 hsl 256 30 0.0001 1 0 1 \$0-FMSustain empty FM_Sustain
-2 -8 0 10 -4034 -1 -1 25500 1;
#X obj -520 -639 vradio 15 1 0 3 \$0-OscSubType empty Sub 0 -8 0 10
-262144 -1 -1 1;
#X text -414 -641 Sine;
#X text -413 -625 Sawtooth;
#X obj -571 -735 vsl 20 135 0.05 0.5 0 1 \$0-PulseWidth empty Pulse_Width
0 -9 0 10 -258113 -1 -1 4800 1;
#X text -412 -610 Pulse;
#X floatatom -617 -738 5 0 0 0 - #0-BitDepthInt -, f 5;
#X floatatom 204 -460 5 0 0 0 - #0-FMAttack -, f 5;
#X floatatom 205 -409 5 0 0 0 - #0-FMDecayValue -, f 5;
#X text -549 -610 5%;
#X text -550 -739 50%;
#X obj -637 -736 vsl 20 135 1 12 0 1 \$0-BitDepth empty Bit_Depth 0
-9 0 10 -261234 -1 -1 13400 1;
#X obj -234 -570 vsl 50 256 0 24 0 1 \$0-OscUpTune empty Tune 0 -9
0 10 -261682 -1 -1 13100 1;
#X obj -634 -570 vsl 50 256 -24 -1 0 1 \$0-OscDownTune empty Tune 0
-9 0 10 -234247 -1 -1 20000 1;
#X obj -584 -570 vsl 50 256 0 0.8 0 1 \$0-OscDownMix empty Level 0
-9 0 10 -234247 -1 -1 9300 1;
#X obj -348 -723 hsl 256 30 2 2000 1 1 \$0-LPAttack empty LP_Attack
-2 -8 0 10 -262030 -1 -1 16400 1;
#X obj -347 -672 hsl 256 30 20 2000 1 1 \$0-LPDecay empty LP_Decay
-2 -8 0 10 -262030 -1 -1 3100 1;
#X obj -347 -624 hsl 256 30 0.01 1 1 1 \$0-LPSustain empty LP_Sustain
-2 -8 0 10 -262030 -1 -1 7500 1;
#X floatatom -122 -739 5 0 0 0 - #0-LPAttack -, f 5;
#X floatatom -121 -688 5 0 0 0 - #0-LPDecay -, f 5;
#X obj -349 -759 hsl 256 15 5 10000 1 1 \$0-LPCutoff empty LP_Cutoff
-2 -8 0 10 -262030 -1 -1 12300 1;
#X floatatom -609 -588 3 0 0 0 - #0-ODTValue -, f 3;
#X floatatom -208 -588 3 0 0 0 - #0-OUTValue -, f 3;
#X obj -534 -570 vsl 50 256 0 1 0 1 \$0-OscSine empty Sine 0 -9 0 10
-184551 -1 -1 0 1;
#X obj -434 -570 vsl 50 256 0 1 0 1 \$0-OscPulse empty Pulse 0 -9 0
10 -184551 -1 -1 16700 1;
#X obj -484 -570 vsl 50 256 0 1 0 1 \$0-OscSaw empty Saw 0 -9 0 10
-184551 -1 -1 16600 1;
#X obj -491 -639 vradio 15 1 0 3 \$0-OscDownType empty Down 0 -8 0
10 -262144 -1 -1 0;
#X obj -461 -639 vradio 15 1 0 3 \$0-OscUpType empty Up 0 -8 0 10 -262144
-1 -1 0;
#X obj -432 -639 vradio 15 1 0 3 \$0-OscFMType empty FM 0 -8 0 10 -262144
-1 -1 2;
#X obj -14 -690 outlet;
#N canvas 70 111 1357 784 CoreUI 0;
#X obj 226 -1845 r \$0-Attack;
#X obj 241 -1821 r \$0-Decay;
#X obj 255 -1755 r \$0-Sustain;
#X obj 992 -1633 r \$0-K;
#X obj 1042 -1591 r \$0-Blend;
#X obj 1092 -1569 r \$0-Rectify;
#X obj 270 -1732 r \$0-Release;
#X obj 890 -1680 r \$0-FMDepth;
#X obj 588 -1807 r \$0-SubLevel;
#X obj 167 -1746 poly 8 1;
#X obj 528 -2004 / 128;
#X obj 528 -1978 moses 63;
#X obj 573 -1830 *;
#X obj 573 -1955 moses 65;
#X msg 573 -1928 0;
#X obj 618 -1905 div 1;
#X obj 618 -1882 / 64;
#X obj 675 -1881 t b f;
#X msg 675 -1929 2;
#X msg 708 -1929 3;
#X msg 742 -1929 4;
#X msg 777 -1929 6;
#X msg 811 -1929 12;
#X obj 675 -1975 loadbang;
#X obj 732 -1999 r \$0-BendRange;
#X obj 732 -1975 sel 0 1 2 3 4;
#X obj 618 -1928 - 63.9;
#X obj 528 -1953 - 64;
#X obj 284 -1710 r \$0-FMAttack;
#X obj 299 -1687 r \$0-FMDecay;
#X obj 313 -1623 r \$0-FMSustain;
#X obj 941 -1657 r \$0-PulseWidth;
#X obj 528 -1928 / 64;
#X obj 992 -1612 expr 2*($f1)/(1-$f1);
#X obj 941 -1633 t b b f;
#X obj 1092 -1547 t b b f;
#X obj 1042 -1569 t b b f;
#X obj 992 -1591 t b b f;
#X obj 890 -1658 t b b f;
#X obj 840 -1680 t b b f;
#X obj 638 -1765 t b b f;
#X obj 588 -1786 t b b f;
#X obj 299 -1665 expr $f1-1;
#X obj 313 -1643 s \$0-FMDecayValue;
#X obj 241 -1799 expr $f1-1;
#X obj 257 -1776 s \$0-DecayValue;
#X obj 638 -1786 r \$0-OscDownMix;
#X obj 688 -1744 t b b f;
#X obj 739 -1723 t b b f;
#X obj 790 -1702 t b b f;
#X obj 688 -1765 r \$0-OscDownTune;
#X obj 739 -1744 r \$0-OscUpMix;
#X obj 790 -1723 r \$0-OscUpTune;
#X obj 840 -1702 r \$0-FM;
#X obj 183 -1510 pack f f f f f f f f f f f f f f;
#X obj 372 -1537 r \$0-LPSustain;
#X obj 357 -1558 r \$0-LPDecay;
#X obj 342 -1579 r \$0-LPAttack;
#X obj 328 -1601 r \$0-LPCutoff;
#X obj 278 -1468 r \$0-OscDownTune;
#X obj 278 -1424 s \$0-ODTValue;
#X obj 278 -1446 expr int($f1);
#X obj 405 -1447 expr int($f1);
#X obj 405 -1469 r \$0-OscUpTune;
#X obj 405 -1425 s \$0-OUTValue;
#X obj 1143 -1526 t b b f;
#X obj 1247 -1484 t b b f;
#X obj 1297 -1464 t b b f;
#X obj 1347 -1444 t b b f;
#X obj 1397 -1423 t b b f;
#X obj 1447 -1402 t b b f;
#X obj 1196 -1505 t b b f;
#X obj 1143 -1547 r \$0-OscSine;
#X obj 1196 -1526 r \$0-OscSaw;
#X obj 1247 -1505 r \$0-OscPulse;
#X obj 1297 -1484 r \$0-OscSubType;
#X obj 1347 -1464 r \$0-OscDownType;
#X obj 1397 -1444 r \$0-OscUpType;
#X obj 1447 -1423 r \$0-OscFMType;
#X obj 573 -1295 pack f f f f f f f f f f f f f f f f f f f;
#X text 278 -1404 ODTValue and OUTValue are used in UI;
#X obj 573 -1273 outlet;
#X obj 183 -1274 outlet;
#X obj 1035 -1295 r \$0-Volume;
#X obj 1035 -1273 outlet;
#X obj 135 -2030 inlet notein;
#X obj 232 -2030 inlet velocityin;
#X obj 528 -2030 inlet bendin;
#X obj 1369 -1326 expr int($f1+0.5);
#X obj 1369 -1295 s \$0-BitDepthInt;
#X obj 1369 -1352 r \$0-BitDepth;
#X obj 1328 -1273 outlet;
#X connect 0 0 54 3;
#X connect 1 0 44 0;
#X connect 2 0 54 5;
#X connect 3 0 33 0;
#X connect 4 0 36 0;
#X connect 5 0 35 0;
#X connect 6 0 54 6;
#X connect 7 0 38 0;
#X connect 8 0 41 0;
#X connect 9 0 54 0;
#X connect 9 1 54 1;
#X connect 9 2 54 2;
#X connect 10 0 11 0;
#X connect 11 0 27 0;
#X connect 11 1 13 0;
#X connect 12 0 79 0;
#X connect 13 0 14 0;
#X connect 13 1 26 0;
#X connect 14 0 12 0;
#X connect 15 0 16 0;
#X connect 16 0 12 0;
#X connect 17 0 12 0;
#X connect 17 1 12 1;
#X connect 18 0 17 0;
#X connect 19 0 17 0;
#X connect 20 0 17 0;
#X connect 21 0 17 0;
#X connect 22 0 17 0;
#X connect 23 0 18 0;
#X connect 24 0 25 0;
#X connect 25 0 18 0;
#X connect 25 1 19 0;
#X connect 25 2 20 0;
#X connect 25 3 21 0;
#X connect 25 4 22 0;
#X connect 26 0 15 0;
#X connect 27 0 32 0;
#X connect 28 0 54 7;
#X connect 29 0 42 0;
#X connect 30 0 54 9;
#X connect 31 0 34 0;
#X connect 32 0 12 0;
#X connect 33 0 37 0;
#X connect 34 1 79 0;
#X connect 34 2 79 8;
#X connect 35 1 79 0;
#X connect 35 2 79 11;
#X connect 36 1 79 0;
#X connect 36 2 79 10;
#X connect 37 1 79 0;
#X connect 37 2 79 9;
#X connect 38 1 79 0;
#X connect 38 2 79 7;
#X connect 39 1 79 0;
#X connect 39 2 79 6;
#X connect 40 1 79 0;
#X connect 40 2 79 2;
#X connect 41 1 79 0;
#X connect 41 2 79 1;
#X connect 42 0 43 0;
#X connect 42 0 54 8;
#X connect 44 0 45 0;
#X connect 44 0 54 4;
#X connect 46 0 40 0;
#X connect 47 1 79 0;
#X connect 47 2 79 3;
#X connect 48 1 79 0;
#X connect 48 2 79 4;
#X connect 49 1 79 0;
#X connect 49 2 79 5;
#X connect 50 0 47 0;
#X connect 51 0 48 0;
#X connect 52 0 49 0;
#X connect 53 0 39 0;
#X connect 54 0 82 0;
#X connect 55 0 54 13;
#X connect 56 0 54 12;
#X connect 57 0 54 11;
#X connect 58 0 54 10;
#X connect 59 0 61 0;
#X connect 61 0 60 0;
#X connect 62 0 64 0;
#X connect 63 0 62 0;
#X connect 65 1 79 0;
#X connect 65 2 79 12;
#X connect 66 1 79 0;
#X connect 66 2 79 14;
#X connect 67 1 79 0;
#X connect 67 2 79 15;
#X connect 68 1 79 0;
#X connect 68 2 79 16;
#X connect 69 1 79 0;
#X connect 69 2 79 17;
#X connect 70 1 79 0;
#X connect 70 2 79 18;
#X connect 71 1 79 0;
#X connect 71 2 79 13;
#X connect 72 0 65 0;
#X connect 73 0 71 0;
#X connect 74 0 66 0;
#X connect 75 0 67 0;
#X connect 76 0 68 0;
#X connect 77 0 69 0;
#X connect 78 0 70 0;
#X connect 79 0 81 0;
#X connect 83 0 84 0;
#X connect 85 0 9 0;
#X connect 86 0 9 1;
#X connect 87 0 10 0;
#X connect 88 0 89 0;
#X connect 88 0 91 0;
#X connect 90 0 88 0;
#X restore -15 -722 pd CoreUI;
#X obj -58 -690 outlet;
#X obj 30 -690 outlet;
#X obj -58 -750 inlet note;
#X obj 10 -750 inlet velocity;
#X obj 102 -750 inlet pitchbend;
#X obj 74 -690 outlet;
#X connect 54 0 55 0;
#X connect 54 1 53 0;
#X connect 54 2 56 0;
#X connect 54 3 60 0;
#X connect 57 0 54 0;
#X connect 58 0 54 1;
#X connect 59 0 54 2;
