#N canvas 83 55 599 866 10;
#X obj 274 -2280 s \$0-ScopeTrig;
#X obj 136 -2280 route 1 2 3 4 5 6 7 8;
#X obj 286 -1742 expr~ ($v1+$v2+$v3+$v4+$v5+$v6+$v7+$v8);
#X obj 156 -1616 *~;
#X obj 171 -1638 r \$0-Volume;
#X obj 156 -1685 expr pow(0.5 \, $f1);
#X obj 156 -1660 expr~ $v1*int($v2/$v1);
#X obj 156 -1711 r \$0-BitDepth;
#X obj 156 -1589 hip~ 22;
#X obj 286 -1797 WSVox;
#X obj 326 -1797 WSVox;
#X obj 366 -1797 WSVox;
#X obj 406 -1797 WSVox;
#X obj 447 -1797 WSVox;
#X obj 488 -1797 WSVox;
#X obj 529 -1797 WSVox;
#X obj 570 -1797 WSVox;
#X obj 156 -1521 outlet~;
#X obj 228 -1589 r \$0-ScopeTrig;
#X obj 228 -1522 outlet;
#X obj 228 -1554 bng 15 250 50 0 empty empty empty 17 7 0 10 -262144
-1 -1;
#X obj 486 -2281 s \$0-Volume;
#X obj 136 -2343 inlet MidiPitchVelADSR;
#X obj 379 -2343 inlet RealtimeUI;
#X obj 486 -2343 inlet VolumeControl;
#X obj 611 -2343 inlet BitDepth;
#X obj 611 -2281 s \$0-BitDepth;
#X connect 1 0 9 0;
#X connect 1 1 10 0;
#X connect 1 2 11 0;
#X connect 1 3 12 0;
#X connect 1 4 13 0;
#X connect 1 5 14 0;
#X connect 1 6 15 0;
#X connect 1 7 16 0;
#X connect 2 0 6 1;
#X connect 3 0 8 0;
#X connect 4 0 3 1;
#X connect 5 0 6 0;
#X connect 6 0 3 0;
#X connect 7 0 5 0;
#X connect 8 0 17 0;
#X connect 9 0 2 0;
#X connect 10 0 2 1;
#X connect 11 0 2 2;
#X connect 12 0 2 3;
#X connect 13 0 2 4;
#X connect 14 0 2 5;
#X connect 15 0 2 6;
#X connect 16 0 2 7;
#X connect 18 0 20 0;
#X connect 20 0 19 0;
#X connect 22 0 0 0;
#X connect 22 0 1 0;
#X connect 23 0 9 1;
#X connect 23 0 10 1;
#X connect 23 0 11 1;
#X connect 23 0 12 1;
#X connect 23 0 13 1;
#X connect 23 0 14 1;
#X connect 23 0 15 1;
#X connect 23 0 16 1;
#X connect 23 0 0 0;
#X connect 24 0 21 0;
#X connect 24 0 0 0;
#X connect 25 0 26 0;
#X connect 25 0 0 0;
