#N canvas 552 180 451 378 10;
#X obj 12 318 hip~ 22;
#X obj 12 244 WSVox;
#X obj 52 244 WSVox;
#X obj 92 244 WSVox;
#X obj 132 244 WSVox;
#X obj 12 342 outlet~;
#X obj 26 6 inlet MidiPitchVelADSR;
#X obj 337 6 inlet RealtimeUI;
#N canvas 183 199 274 104 SoftLimiter 0;
#X obj 8 6 inlet~;
#X obj 8 52 outlet~;
#X obj 8 29 expr~ (1.5*$v1)-(pow($v1 \, 3)*0.5);
#X connect 0 0 2 0;
#X connect 2 0 1 0;
#X restore 12 295 pd SoftLimiter;
#X obj 12 94 pack f f f f f f f f f f f f f f;
#X obj 26 31 unpack f f f f f f f f f f f f f;
#X obj 12 272 expr~ ($v1+$v2+$v3+$v4);
#X obj -4 64 poly 4 1;
#X obj 12 119 route 1 2 3 4;
#X connect 0 0 5 0;
#X connect 1 0 11 0;
#X connect 2 0 11 1;
#X connect 3 0 11 2;
#X connect 4 0 11 3;
#X connect 6 0 10 0;
#X connect 7 0 1 1;
#X connect 7 0 2 1;
#X connect 7 0 3 1;
#X connect 7 0 4 1;
#X connect 8 0 0 0;
#X connect 9 0 13 0;
#X connect 10 0 12 0;
#X connect 10 1 12 1;
#X connect 10 2 9 3;
#X connect 10 3 9 4;
#X connect 10 4 9 5;
#X connect 10 5 9 6;
#X connect 10 6 9 7;
#X connect 10 7 9 8;
#X connect 10 8 9 9;
#X connect 10 9 9 10;
#X connect 10 10 9 11;
#X connect 10 11 9 12;
#X connect 10 12 9 13;
#X connect 11 0 8 0;
#X connect 12 0 9 0;
#X connect 12 1 9 1;
#X connect 12 2 9 2;
#X connect 13 0 1 0;
#X connect 13 1 2 0;
#X connect 13 2 3 0;
#X connect 13 3 4 0;
