#N canvas -5 111 1479 720.031 10;
#X obj -569 -676 pddp/dsp;
#N canvas 1021 171 621 433 (subpatch) 0;
#X array Waveform 2051 float 5 black black;
#A 0 0 0 0 0 0 0 0 0 0 0 0 0 0 0 0 0 0 0 0 0 0 0 0 0 0 0 0 0 0 0 0
0 0 0 0 0 0 0 0 0 0 0 0 0 0 0 0 0 0 0 0 0 0 0 0 0 0 0 0 0 0 0 0 0 0
0 0 0 0 0 0 0 0 0 0 0 0 0 0 0 0 0 0 0 0 0 0 0 0 0 0 0 0 0 0 0 0 0 0
0 0 0 0 0 0 0 0 0 0 0 0 0 0 0 0 0 0 0 0 0 0 0 0 0 0 0 0 0 0 0 0 0 0
0 0 0 0 0 0 0 0 0 0 0 0 0 0 0 0 0 0 0 0 0 0 0 0 0 0 0 0 0 0 0 0 0 0
0 0 0 0 0 0 0 0 0 0 0 0 0 0 0 0 0 0 0 0 0 0 0 0 0 0 0 0 0 0 0 0 0 0
0 0 0 0 0 0 0 0 0 0 0 0 0 0 0 0 0 0 0 0 0 0 0 0 0 0 0 0 0 0 0 0 0 0
0 0 0 0 0 0 0 0 0 0 0 0 0 0 0 0 0 0 0 0 0 0 0 0 0 0 0 0 0 0 0 0 0 0
0 0 0 0 0 0 0 0 0 0 0 0 0 0 0 0 0 0 0 0 0 0 0 0 0 0 0 0 0 0 0 0 0 0
0 0 0 0 0 0 0 0 0 0 0 0 0 0 0 0 0 0 0 0 0 0 0 0 0 0 0 0 0 0 0 0 0 0
0 0 0 0 0 0 0 0 0 0 0 0 0 0 0 0 0 0 0 0 0 0 0 0 0 0 0 0 0 0 0 0 0 0
0 0 0 0 0 0 0 0 0 0 0 0 0 0 0 0 0 0 0 0 0 0 0 0 0 0 0 0 0 0 0 0 0 0
0 0 0 0 0 0 0 0 0 0 0 0 0 0 0 0 0 0 0 0 0 0 0 0 0 0 0 0 0 0 0 0 0 0
0 0 0 0 0 0 0 0 0 0 0 0 0 0 0 0 0 0 0 0 0 0 0 0 0 0 0 0 0 0 0 0 0 0
0 0 0 0 0 0 0 0 0 0 0 0 0 0 0 0 0 0 0 0 0 0 0 0 0 0 0 0 0 0 0 0 0 0
0 0 0 0 0 0 0 0 0 0 0 0 0 0 0 0 0 0 0 0 0 0 0 0 0 0 0 0 0 0 0 0 0 0
0 0 0 0 0 0 0 0 0 0 0 0 0 0 0 0 0 0 0 0 0 0 0 0 0 0 0 0 0 0 0 0 0 0
0 0 0 0 0 0 0 0 0 0 0 0 0 0 0 0 0 0 0 0 0 0 0 0 0 0 0 0 0 0 0 0 0 0
0 0 0 0 0 0 0 0 0 0 0 0 0 0 0 0 0 0 0 0 0 0 0 0 0 0 0 0 0 0 0 0 0 0
0 0 0 0 0 0 0 0 0 0 0 0 0 0 0 0 0 0 0 0 0 0 0 0 0 0 0 0 0 0 0 0 0 0
0 0 0 0 0 0 0 0 0 0 0 0 0 0 0 0 0 0 0 0 0 0 0 0 0 0 0 0 0 0 0 0 0 0
0 0 0 0 0 0 0 0 0 0 0 0 0 0 0 0 0 0 0 0 0 0 0 0 0 0 0 0 0 0 0 0 0 0
0 0 0 0 0 0 0 0 0 0 0 0 0 0 0 0 0 0 0 0 0 0 0 0 0 0 0 0 0 0 0 0 0 0
0 0 0 0 0 0 0 0 0 0 0 0 0 0 0 0 0 0 0 0 0 0 0 0 0 0 0 0 0 0 0 0 0 0
0 0 0 0 0 0 0 0 0 0 0 0 0 0 0 0 0 0 0 0 0 0 0 0 0 0 0 0 0 0 0 0 0 0
0 0 0 0 0 0 0 0 0 0 0 0 0 0 0 0 0 0 0 0 0 0 0 0 0 0 0 0 0 0 0 0 0 0
0 0 0 0 0 0 0 0 0 0 0 0 0 0 0 0 0 0 0 0 0 0 0 0 0 0 0 0 0 0 0 0 0 0
0 0 0 0 0 0 0 0 0 0 0 0 0 0 0 0 0 0 0 0 0 0 0 0 0 0 0 0 0 0 0 0 0 0
0 0 0 0 0 0 0 0 0 0 0 0 0 0 0 0 0 0 0 0 0 0 0 0 0 0 0 0 0 0 0 0 0 0
0 0 0 0 0 0 0 0 0 0 0 0 0 0 0 0 0;
#A 1000 0 0 0 0 0 0 0 0 0 0 0 0 0 0 0 0 0 0 0 0 0 0 0 0 0 0 0 0 0 0
0 0 0 0 0 0 0 0 0 0 0 0 0 0 0 0 0 0 0 0 0 0 0 0 0 0 0 0 0 0 0 0 0 0
0 0 0 0 0 0 0 0 0 0 0 0 0 0 0 0 0 0 0 0 0 0 0 0 0 0 0 0 0 0 0 0 0 0
0 0 0 0 0 0 0 0 0 0 0 0 0 0 0 0 0 0 0 0 0 0 0 0 0 0 0 0 0 0 0 0 0 0
0 0 0 0 0 0 0 0 0 0 0 0 0 0 0 0 0 0 0 0 0 0 0 0 0 0 0 0 0 0 0 0 0 0
0 0 0 0 0 0 0 0 0 0 0 0 0 0 0 0 0 0 0 0 0 0 0 0 0 0 0 0 0 0 0 0 0 0
0 0 0 0 0 0 0 0 0 0 0 0 0 0 0 0 0 0 0 0 0 0 0 0 0 0 0 0 0 0 0 0 0 0
0 0 0 0 0 0 0 0 0 0 0 0 0 0 0 0 0 0 0 0 0 0 0 0 0 0 0 0 0 0 0 0 0 0
0 0 0 0 0 0 0 0 0 0 0 0 0 0 0 0 0 0 0 0 0 0 0 0 0 0 0 0 0 0 0 0 0 0
0 0 0 0 0 0 0 0 0 0 0 0 0 0 0 0 0 0 0 0 0 0 0 0 0 0 0 0 0 0 0 0 0 0
0 0 0 0 0 0 0 0 0 0 0 0 0 0 0 0 0 0 0 0 0 0 0 0 0 0 0 0 0 0 0 0 0 0
0 0 0 0 0 0 0 0 0 0 0 0 0 0 0 0 0 0 0 0 0 0 0 0 0 0 0 0 0 0 0 0 0 0
0 0 0 0 0 0 0 0 0 0 0 0 0 0 0 0 0 0 0 0 0 0 0 0 0 0 0 0 0 0 0 0 0 0
0 0 0 0 0 0 0 0 0 0 0 0 0 0 0 0 0 0 0 0 0 0 0 0 0 0 0 0 0 0 0 0 0 0
0 0 0 0 0 0 0 0 0 0 0 0 0 0 0 0 0 0 0 0 0 0 0 0 0 0 0 0 0 0 0 0 0 0
0 0 0 0 0 0 0 0 0 0 0 0 0 0 0 0 0 0 0 0 0 0 0 0 0 0 0 0 0 0 0 0 0 0
0 0 0 0 0 0 0 0 0 0 0 0 0 0 0 0 0 0 0 0 0 0 0 0 0 0 0 0 0 0 0 0 0 0
0 0 0 0 0 0 0 0 0 0 0 0 0 0 0 0 0 0 0 0 0 0 0 0 0 0 0 0 0 0 0 0 0 0
0 0 0 0 0 0 0 0 0 0 0 0 0 0 0 0 0 0 0 0 0 0 0 0 0 0 0 0 0 0 0 0 0 0
0 0 0 0 0 0 0 0 0 0 0 0 0 0 0 0 0 0 0 0 0 0 0 0 0 0 0 0 0 0 0 0 0 0
0 0 0 0 0 0 0 0 0 0 0 0 0 0 0 0 0 0 0 0 0 0 0 0 0 0 0 0 0 0 0 0 0 0
0 0 0 0 0 0 0 0 0 0 0 0 0 0 0 0 0 0 0 0 0 0 0 0 0 0 0 0 0 0 0 0 0 0
0 0 0 0 0 0 0 0 0 0 0 0 0 0 0 0 0 0 0 0 0 0 0 0 0 0 0 0 0 0 0 0 0 0
0 0 0 0 0 0 0 0 0 0 0 0 0 0 0 0 0 0 0 0 0 0 0 0 0 0 0 0 0 0 0 0 0 0
0 0 0 0 0 0 0 0 0 0 0 0 0 0 0 0 0 0 0 0 0 0 0 0 0 0 0 0 0 0 0 0 0 0
0 0 0 0 0 0 0 0 0 0 0 0 0 0 0 0 0 0 0 0 0 0 0 0 0 0 0 0 0 0 0 0 0 0
0 0 0 0 0 0 0 0 0 0 0 0 0 0 0 0 0 0 0 0 0 0 0 0 0 0 0 0 0 0 0 0 0 0
0 0 0 0 0 0 0 0 0 0 0 0 0 0 0 0 0 0 0 0 0 0 0 0 0 0 0 0 0 0 0 0 0 0
0 0 0 0 0 0 0 0 0 0 0 0 0 0 0 0 0 0 0 0 0 0 0 0 0 0 0 0 0 0 0 0 0 0
0 0 0 0 0 0 0 0 0 0 0 0 0 0 0 0 0 0;
#A 2000 0 0 0 0 0 0 0 0 0 0 0 0 0 0 0 0 0 0 0 0 0 0 0 0 0 0 0 0 0 0
0 0 0 0 0 0 0 0 0 0 0 0 0 0 0 0 0 0 0 0 0;
#X coords 0 0.5 2050 -0.5 500 140 1;
#X restore -683 -820 graph;
#X obj -169 -818 vsl 20 135 0.01 0.2 1 1 \$0-Volume empty Volume 0
-9 0 10 -232576 -1 -1 11300 1;
#X obj -383 -630 vsl 50 256 -0.6 0.8 0 1 \$0-K empty Warp 0 -9 0 10
-203904 -1 -1 6600 1;
#X obj -333 -630 vsl 50 256 0 1 0 1 \$0-Blend empty Blend 0 -9 0 10
-203904 -1 -1 18700 1;
#X obj -283 -630 vsl 50 256 0 2 0 1 \$0-Rectify empty Rectify 0 -9
0 10 -203904 -1 -1 0 1;
#X obj -23 -648 hsl 256 30 0.3 1000 1 1 \$0-Attack empty Attack -2
-8 0 10 -204786 -1 -1 5000 1;
#X obj -22 -495 hsl 256 30 1 1000 1 1 \$0-Release empty Release -2
-8 0 10 -204786 -1 -1 8600 1;
#X obj -23 -596 hsl 256 30 1 5001 1 1 \$0-Decay empty Decay -2 -8 0
10 -204786 -1 -1 9500 1;
#X obj -23 -546 hsl 256 30 0.0001 1 0 1 \$0-Sustain empty Sustain -2
-8 0 10 -204786 -1 -1 25500 1;
#X floatatom 203 -664 5 0 0 0 - #0-Attack -, f 5;
#X floatatom 203 -612 5 0 0 0 - #0-DecayValue -, f 5;
#X floatatom 204 -511 5 0 0 0 - #0-Release -, f 5;
#X obj -574 -311 hsl 256 30 0 0.55 0 1 \$0-ReverbLevel empty Reverb_Level
-2 -8 0 10 -204800 -1 -1 6200 1;
#X floatatom -348 -327 5 0 0 0 - #0-ReverbLevel -, f 5;
#X obj -681 -333 vradio 15 1 0 5 \$0-BendRange empty empty 0 -8 0 10
-162280 -1 -1 0;
#X text -664 -333 2 Semitones;
#X text -664 -317 3 Semitones;
#X text -664 -302 4 Semitones;
#X text -663 -287 Half Octave;
#X text -662 -272 Full Octave;
#X text -683 -348 Pitch Bend Range;
#X obj -133 -630 vsl 50 256 0.1 6000 1 1 \$0-FM empty FM_Freq 0 -9
0 10 -262130 -1 -1 5400 1;
#X obj -183 -630 vsl 50 256 0 0.6 0 1 \$0-OscUpMix empty Level 0 -9
0 10 -261682 -1 -1 25500 1;
#X obj -83 -630 vsl 50 256 0 1 0 1 \$0-FMDepth empty FM_Depth 0 -9
0 10 -262130 -1 -1 25500 1;
#X obj -683 -630 vsl 50 256 0 0.8 0 1 \$0-SubLevel empty Sub 0 -9 0
10 -260097 -1 -1 15300 1;
#N canvas 15 54 1479 918 SynthEngine 0;
#X obj -150 -73 notein 1;
#X obj -270 -25 s \$0-ScopeTrig;
#X obj -91 112 r \$0-Attack;
#X obj -76 136 r \$0-Decay;
#X obj -62 202 r \$0-Sustain;
#X obj 675 324 r \$0-K;
#X obj 725 366 r \$0-Blend;
#X obj 775 388 r \$0-Rectify;
#X obj -47 225 r \$0-Release;
#X obj 573 277 r \$0-FMDepth;
#X obj 271 150 r \$0-SubLevel;
#X obj -150 211 poly 8 1;
#X obj -134 473 route 1 2 3 4 5 6 7 8;
#X obj 16 1011 expr~ ($v1+$v2+$v3+$v4+$v5+$v6+$v7+$v8);
#X obj -247 2192 tabwrite~ Waveform;
#X obj -115 1136 *~;
#X obj -247 2154 bng 15 250 50 0 empty empty empty 17 7 0 10 -262144
-1 -1;
#X obj -247 2112 r \$0-ScopeTrig;
#X obj -100 1115 r \$0-Volume;
#X obj 211 -73 bendin;
#X obj 211 -47 / 128;
#X obj 211 -21 moses 63;
#X obj 256 127 *;
#X obj 256 2 moses 65;
#X msg 256 29 0;
#X obj 301 52 div 1;
#X obj 301 75 / 64;
#X obj 358 76 t b f;
#X msg 358 28 2;
#X msg 391 28 3;
#X msg 425 28 4;
#X msg 460 28 6;
#X msg 494 28 12;
#X obj 358 -18 loadbang;
#X obj 415 -42 r \$0-BendRange;
#X obj 415 -18 sel 0 1 2 3 4;
#X obj 301 29 - 63.9;
#X obj 211 4 - 64;
#X obj -116 2333 freeverb~;
#X msg 82 2244 roomsize \$1;
#X msg 4 2244 damping \$1;
#X msg -61 2244 width \$1;
#X msg -247 2295 wet \$1;
#X msg -183 2295 dry \$1;
#X msg 83 2286 freeze \$1;
#X obj -216 2243 expr 1-$f1;
#X floatatom -216 2264 5 0 0 0 - - -, f 5;
#X obj -247 2214 r \$0-ReverbLevel;
#X obj -61 2192 loadbang;
#X msg -61 2220 1;
#X obj -114 1068 expr pow(0.5 \, $f1);
#X obj -114 1093 expr~ $v1*int($v2/$v1);
#X obj -232 998 expr int($f1+0.5);
#X obj -232 968 r \$0-BitDepth;
#X obj -213 1093 s \$0-ScopeTrig;
#X obj 83 2266 r \$0-ReverbFreeze;
#X obj -33 247 r \$0-FMAttack;
#X obj -18 270 r \$0-FMDecay;
#X obj -4 334 r \$0-FMSustain;
#X obj 624 300 r \$0-PulseWidth;
#X obj -64 2362 hip~ 22;
#X obj -116 2362 hip~ 22;
#X obj 211 29 / 64;
#X obj -116 2111 moog~;
#X obj -103 1967 r \$0-FilterCutoff;
#X obj -89 2085 r \$0-FilterQ;
#X obj -117 2396 dac~;
#X obj 675 345 expr 2*($f1)/(1-$f1);
#X obj 624 324 t b b f;
#X obj 775 410 t b b f;
#X obj 725 388 t b b f;
#X obj 675 366 t b b f;
#X obj 573 299 t b b f;
#X obj 523 277 t b b f;
#X obj 321 192 t b b f;
#X obj 271 171 t b b f;
#X obj 671 826 s \$0-ScopeTrig;
#X obj -232 1026 t f b f;
#X obj -232 1117 s \$0-BitDepthInt;
#X obj -18 292 expr $f1-1;
#X obj -4 314 s \$0-FMDecayValue;
#X obj -76 158 expr $f1-1;
#X obj -60 181 s \$0-DecayValue;
#X obj -17 1494 /~ 2;
#X obj 85 1165 sel 0;
#X obj -89 -25 s \$0-NoteVel;
#X obj 85 1132 r \$0-NoteVel;
#X obj 390 1422 vline~;
#X obj -17 1520 *~;
#X obj 112 1185 t b b;
#X obj 112 1219 delay 3;
#X obj -116 1584 expr~ $v1-$v1*$v2;
#X obj -18 1560 *~;
#X obj 112 1241 f;
#X msg 390 1304 0 3 \, 1 10 3;
#X obj -17 1471 expr~ sin($v1);
#X obj -17 1222 r \$0-LFORate;
#X obj -3 1540 r \$0-LFODepth;
#X obj 321 171 r \$0-OscDownMix;
#X obj 371 213 t b b f;
#X obj 422 234 t b b f;
#X obj 473 255 t b b f;
#X obj 371 192 r \$0-OscDownTune;
#X obj 422 213 r \$0-OscUpMix;
#X obj 473 234 r \$0-OscUpTune;
#X obj 523 255 r \$0-FM;
#X obj 103 1541 sel 0;
#X obj 103 1521 r \$0-NoteVel;
#X obj 397 1887 vline~;
#X obj 18 1932 *~;
#X obj 130 1561 t b b;
#X obj 130 1612 delay 3;
#X obj 17 1972 *~;
#X obj 130 1636 f;
#X msg 397 1612 0 3 \, 1 10 3;
#X obj -103 2024 +~;
#X obj 17 1612 r \$0-FiltLFORate;
#X obj 32 1952 r \$0-FiltLFODepth;
#X obj -103 1993 sig~;
#X obj 17 1875 expr~ sin($v1);
#X msg 4 2220 0.65;
#X msg 82 2219 0.75;
#X obj 17 1898 expr~ ($v1*-0.5)+0.5;
#X obj -134 447 pack f f f f f f f f f f f f f f;
#X obj 16 956 WSVox;
#X obj 56 956 WSVox;
#X obj 96 956 WSVox;
#X obj 136 956 WSVox;
#X obj 177 956 WSVox;
#X obj 218 956 WSVox;
#X obj 259 956 WSVox;
#X obj 300 956 WSVox;
#X obj 55 420 r \$0-LPSustain;
#X obj 40 399 r \$0-LPDecay;
#X obj 25 378 r \$0-LPAttack;
#X obj 11 356 r \$0-LPCutoff;
#X obj 566 148 r \$0-OscDownTune;
#X obj 566 192 s \$0-ODTValue;
#X obj 566 170 expr int($f1);
#X obj 693 169 expr int($f1);
#X obj 693 147 r \$0-OscUpTune;
#X obj 693 191 s \$0-OUTValue;
#X obj 648 1093 ctlin;
#X obj 648 1131 pack f f;
#X floatatom 648 1339 5 0 0 0 - - -, f 5;
#X text 705 1112 Make real-time controller assignments here using 'route'
and controller number Control data accepted from all channels.;
#X obj 648 1155 route 7 73 75 72 74 79 84 91 93;
#X floatatom 668 1320 5 0 0 0 - - -, f 5;
#X floatatom 688 1301 5 0 0 0 - - -, f 5;
#X floatatom 709 1282 5 0 0 0 - - -, f 5;
#X floatatom 729 1263 5 0 0 0 - - -, f 5;
#X floatatom 749 1243 5 0 0 0 - - -, f 5;
#X floatatom 790 1203 5 0 0 0 - - -, f 5;
#X floatatom 810 1183 5 0 0 0 - - -, f 5;
#X floatatom 770 1223 5 0 0 0 - - -, f 5;
#X obj 591 1070 loadbang;
#X obj 591 1093 metro 1;
#X obj 826 431 t b b f;
#X obj 930 473 t b b f;
#X obj 980 493 t b b f;
#X obj 1030 513 t b b f;
#X obj 1080 534 t b b f;
#X obj 1130 555 t b b f;
#X obj 879 452 t b b f;
#X obj 826 410 r \$0-OscSine;
#X obj 879 431 r \$0-OscSaw;
#X obj 930 452 r \$0-OscPulse;
#X obj 980 473 r \$0-OscSubType;
#X obj 1030 493 r \$0-OscDownType;
#X obj 1080 513 r \$0-OscUpType;
#X obj 1130 534 r \$0-OscFMType;
#X obj 256 826 pack f f f f f f f f f f f f f f f f f f f;
#X obj 16 1780 osc~;
#X obj 17 1648 vline~;
#X obj 52 1679 phasor~;
#X obj 52 1780 expr~ $v1*2-1;
#X msg 220 1780 0;
#X msg 189 1780 1;
#X msg 281 1780 0;
#X msg 250 1780 1;
#X obj 338 1731 loadbang;
#X obj 247 1728 sel 0 1 2;
#X obj 17 1849 expr~ $v1*$v4+$v2*$v5+$v3*$v6;
#X msg 311 1780 1;
#X msg 342 1780 0;
#X obj 247 1705 r \$0-OscTypeLFO;
#X obj 142 1780 -~ 0.5;
#X obj 142 1733 >~ 0.5;
#X obj 706 1070 touchin;
#X text 757 1070 Aftertouch Inlet;
#X obj -18 1379 osc~;
#X obj -17 1247 vline~;
#X obj 18 1278 phasor~;
#X obj 18 1379 expr~ $v1*2-1;
#X msg 186 1379 0;
#X msg 155 1379 1;
#X msg 247 1379 0;
#X msg 216 1379 1;
#X obj 304 1330 loadbang;
#X obj 213 1327 sel 0 1 2;
#X obj -17 1448 expr~ $v1*$v4+$v2*$v5+$v3*$v6;
#X msg 277 1379 1;
#X msg 308 1379 0;
#X obj 213 1304 r \$0-OscTypeLFO;
#X obj 108 1379 -~ 0.5;
#X obj 108 1332 >~ 0.5;
#X obj -79 1517 snapshot~;
#X obj -82 1487 metro 10;
#X obj -91 1454 bng 15 250 50 0 empty empty empty 17 7 0 10 -262144
-1 -1;
#X floatatom -77 1555 5 0 0 0 - - -, f 5;
#X connect 0 0 1 0;
#X connect 0 0 11 0;
#X connect 0 1 11 1;
#X connect 0 1 85 0;
#X connect 2 0 123 3;
#X connect 3 0 81 0;
#X connect 4 0 123 5;
#X connect 5 0 67 0;
#X connect 6 0 70 0;
#X connect 7 0 69 0;
#X connect 8 0 123 6;
#X connect 9 0 72 0;
#X connect 10 0 75 0;
#X connect 11 0 123 0;
#X connect 11 1 123 1;
#X connect 11 2 123 2;
#X connect 12 0 124 0;
#X connect 12 1 125 0;
#X connect 12 2 126 0;
#X connect 12 3 127 0;
#X connect 12 4 128 0;
#X connect 12 5 129 0;
#X connect 12 6 130 0;
#X connect 12 7 131 0;
#X connect 13 0 51 1;
#X connect 15 0 91 0;
#X connect 16 0 14 0;
#X connect 17 0 16 0;
#X connect 18 0 15 1;
#X connect 19 0 20 0;
#X connect 20 0 21 0;
#X connect 21 0 37 0;
#X connect 21 1 23 0;
#X connect 22 0 171 0;
#X connect 23 0 24 0;
#X connect 23 1 36 0;
#X connect 24 0 22 0;
#X connect 25 0 26 0;
#X connect 26 0 22 0;
#X connect 27 0 22 0;
#X connect 27 1 22 1;
#X connect 28 0 27 0;
#X connect 29 0 27 0;
#X connect 30 0 27 0;
#X connect 31 0 27 0;
#X connect 32 0 27 0;
#X connect 33 0 28 0;
#X connect 34 0 35 0;
#X connect 35 0 28 0;
#X connect 35 1 29 0;
#X connect 35 2 30 0;
#X connect 35 3 31 0;
#X connect 35 4 32 0;
#X connect 36 0 25 0;
#X connect 37 0 62 0;
#X connect 38 0 61 0;
#X connect 38 1 60 0;
#X connect 39 0 38 0;
#X connect 40 0 38 0;
#X connect 41 0 38 0;
#X connect 42 0 38 0;
#X connect 43 0 38 0;
#X connect 44 0 38 0;
#X connect 45 0 46 0;
#X connect 46 0 43 0;
#X connect 47 0 42 0;
#X connect 47 0 45 0;
#X connect 48 0 49 0;
#X connect 48 0 120 0;
#X connect 48 0 121 0;
#X connect 49 0 41 0;
#X connect 50 0 51 0;
#X connect 51 0 15 0;
#X connect 52 0 77 0;
#X connect 53 0 52 0;
#X connect 55 0 44 0;
#X connect 56 0 123 7;
#X connect 57 0 79 0;
#X connect 58 0 123 9;
#X connect 59 0 68 0;
#X connect 60 0 66 1;
#X connect 61 0 66 0;
#X connect 62 0 22 0;
#X connect 63 0 38 0;
#X connect 63 0 38 1;
#X connect 63 0 14 0;
#X connect 64 0 118 0;
#X connect 65 0 63 2;
#X connect 67 0 71 0;
#X connect 68 0 76 0;
#X connect 68 1 171 0;
#X connect 68 2 171 8;
#X connect 69 0 76 0;
#X connect 69 1 171 0;
#X connect 69 2 171 11;
#X connect 70 0 76 0;
#X connect 70 1 171 0;
#X connect 70 2 171 10;
#X connect 71 0 76 0;
#X connect 71 1 171 0;
#X connect 71 2 171 9;
#X connect 72 0 76 0;
#X connect 72 1 171 0;
#X connect 72 2 171 7;
#X connect 73 0 76 0;
#X connect 73 1 171 0;
#X connect 73 2 171 6;
#X connect 74 0 76 0;
#X connect 74 1 171 0;
#X connect 74 2 171 2;
#X connect 75 0 76 0;
#X connect 75 1 171 0;
#X connect 75 2 171 1;
#X connect 77 0 78 0;
#X connect 77 1 54 0;
#X connect 77 2 50 0;
#X connect 79 0 80 0;
#X connect 79 0 123 8;
#X connect 81 0 82 0;
#X connect 81 0 123 4;
#X connect 83 0 88 0;
#X connect 83 0 206 0;
#X connect 84 1 89 0;
#X connect 86 0 84 0;
#X connect 87 0 88 1;
#X connect 88 0 92 0;
#X connect 89 0 90 0;
#X connect 89 1 94 0;
#X connect 90 0 93 0;
#X connect 91 0 63 0;
#X connect 92 0 91 1;
#X connect 93 0 192 1;
#X connect 93 0 190 1;
#X connect 94 0 87 0;
#X connect 95 0 83 0;
#X connect 96 0 191 0;
#X connect 97 0 92 1;
#X connect 98 0 74 0;
#X connect 99 0 76 0;
#X connect 99 1 171 0;
#X connect 99 2 171 3;
#X connect 100 0 76 0;
#X connect 100 1 171 0;
#X connect 100 2 171 4;
#X connect 101 0 76 0;
#X connect 101 1 171 0;
#X connect 101 2 171 5;
#X connect 102 0 99 0;
#X connect 103 0 100 0;
#X connect 104 0 101 0;
#X connect 105 0 73 0;
#X connect 106 1 110 0;
#X connect 107 0 106 0;
#X connect 108 0 109 1;
#X connect 109 0 112 0;
#X connect 110 0 111 0;
#X connect 110 1 114 0;
#X connect 111 0 113 0;
#X connect 112 0 115 1;
#X connect 113 0 174 1;
#X connect 113 0 172 1;
#X connect 114 0 108 0;
#X connect 115 0 63 1;
#X connect 116 0 173 0;
#X connect 117 0 112 1;
#X connect 118 0 115 0;
#X connect 119 0 122 0;
#X connect 120 0 40 0;
#X connect 121 0 39 0;
#X connect 122 0 109 0;
#X connect 123 0 12 0;
#X connect 124 0 13 0;
#X connect 125 0 13 1;
#X connect 126 0 13 2;
#X connect 127 0 13 3;
#X connect 128 0 13 4;
#X connect 129 0 13 5;
#X connect 130 0 13 6;
#X connect 131 0 13 7;
#X connect 132 0 123 13;
#X connect 133 0 123 12;
#X connect 134 0 123 11;
#X connect 135 0 123 10;
#X connect 136 0 138 0;
#X connect 138 0 137 0;
#X connect 139 0 141 0;
#X connect 140 0 139 0;
#X connect 142 0 143 1;
#X connect 142 1 143 0;
#X connect 143 0 146 0;
#X connect 146 0 144 0;
#X connect 146 1 147 0;
#X connect 146 2 148 0;
#X connect 146 3 149 0;
#X connect 146 4 150 0;
#X connect 146 5 151 0;
#X connect 146 6 154 0;
#X connect 146 7 152 0;
#X connect 146 8 153 0;
#X connect 155 0 156 0;
#X connect 156 0 143 0;
#X connect 157 0 76 0;
#X connect 157 1 171 0;
#X connect 157 2 171 12;
#X connect 158 0 76 0;
#X connect 158 1 171 0;
#X connect 158 2 171 14;
#X connect 159 0 76 0;
#X connect 159 1 171 0;
#X connect 159 2 171 15;
#X connect 160 0 76 0;
#X connect 160 1 171 0;
#X connect 160 2 171 16;
#X connect 161 0 76 0;
#X connect 161 1 171 0;
#X connect 161 2 171 17;
#X connect 162 0 76 0;
#X connect 162 1 171 0;
#X connect 162 2 171 18;
#X connect 163 0 76 0;
#X connect 163 1 171 0;
#X connect 163 2 171 13;
#X connect 164 0 157 0;
#X connect 165 0 163 0;
#X connect 166 0 158 0;
#X connect 167 0 159 0;
#X connect 168 0 160 0;
#X connect 169 0 161 0;
#X connect 170 0 162 0;
#X connect 171 0 124 1;
#X connect 171 0 125 1;
#X connect 171 0 126 1;
#X connect 171 0 127 1;
#X connect 171 0 128 1;
#X connect 171 0 129 1;
#X connect 171 0 130 1;
#X connect 171 0 131 1;
#X connect 172 0 182 0;
#X connect 173 0 172 0;
#X connect 173 0 174 0;
#X connect 174 0 175 0;
#X connect 174 0 187 0;
#X connect 175 0 182 1;
#X connect 176 0 182 3;
#X connect 177 0 182 3;
#X connect 178 0 182 4;
#X connect 179 0 182 4;
#X connect 180 0 177 0;
#X connect 180 0 178 0;
#X connect 180 0 184 0;
#X connect 181 0 177 0;
#X connect 181 0 178 0;
#X connect 181 0 184 0;
#X connect 181 1 176 0;
#X connect 181 1 179 0;
#X connect 181 1 184 0;
#X connect 181 2 176 0;
#X connect 181 2 178 0;
#X connect 181 2 183 0;
#X connect 182 0 119 0;
#X connect 183 0 182 5;
#X connect 184 0 182 5;
#X connect 185 0 181 0;
#X connect 186 0 182 2;
#X connect 187 0 186 0;
#X connect 190 0 200 0;
#X connect 191 0 190 0;
#X connect 191 0 192 0;
#X connect 192 0 193 0;
#X connect 192 0 205 0;
#X connect 193 0 200 1;
#X connect 194 0 200 3;
#X connect 195 0 200 3;
#X connect 196 0 200 4;
#X connect 197 0 200 4;
#X connect 198 0 195 0;
#X connect 198 0 196 0;
#X connect 198 0 202 0;
#X connect 199 0 195 0;
#X connect 199 0 196 0;
#X connect 199 0 202 0;
#X connect 199 1 194 0;
#X connect 199 1 197 0;
#X connect 199 1 202 0;
#X connect 199 2 194 0;
#X connect 199 2 196 0;
#X connect 199 2 201 0;
#X connect 200 0 95 0;
#X connect 201 0 200 5;
#X connect 202 0 200 5;
#X connect 203 0 199 0;
#X connect 204 0 200 2;
#X connect 205 0 204 0;
#X connect 206 0 209 0;
#X connect 207 0 206 0;
#X connect 208 0 207 0;
#X restore -683 -675 pd SynthEngine;
#X obj -22 -444 hsl 256 30 0.3 2000 1 1 \$0-FMAttack empty FM_Attack
-2 -8 0 10 -4034 -1 -1 5000 1;
#X obj -21 -393 hsl 256 30 1 5001 1 1 \$0-FMDecay empty FM_Decay -2
-8 0 10 -4034 -1 -1 11900 1;
#X obj -21 -340 hsl 256 30 0.0001 1 0 1 \$0-FMSustain empty FM_Sustain
-2 -8 0 10 -4034 -1 -1 25500 1;
#X obj -4 -772 vradio 15 1 0 3 \$0-OscSubType empty Sub 0 -8 0 10 -262144
-1 -1 0;
#X text 102 -774 Sine;
#X text 103 -758 Sawtooth;
#X obj -33 -818 vsl 20 135 0.05 0.5 0 1 \$0-PulseWidth empty Pulse_Width
0 -9 0 10 -258113 -1 -1 11100 1;
#X text 104 -743 Pulse;
#X obj 250 -632 vsl 20 320 120 12000 1 1 \$0-FilterCutoff empty Filter_Cutoff
0 -9 0 10 -4032 -1 -1 31900 1;
#X obj 283 -592 vsl 20 280 0.1 4 1 1 \$0-FilterQ empty Resonance 0
-9 0 10 -4032 -1 -1 3700 1;
#X floatatom -89 -820 5 0 0 0 - #0-BitDepthInt -, f 5;
#X floatatom 204 -460 5 0 0 0 - #0-FMAttack -, f 5;
#X floatatom 205 -409 5 0 0 0 - #0-FMDecayValue -, f 5;
#X text -11 -693 5%;
#X text -10 -824 50%;
#X obj -109 -818 vsl 20 135 1 12 0 1 \$0-BitDepth empty Bit_Depth 0
-9 0 10 -261234 -1 -1 2500 1;
#X obj 318 -568 vsl 50 256 0.1 100 1 1 \$0-LFORate empty LFO_Rate 0
-9 0 10 -81085 -1 -1 8100 1;
#X obj 373 -568 vsl 50 256 0 1 0 1 \$0-LFODepth empty Depth 0 -9 0
10 -81085 -1 -1 25500 1;
#X obj -233 -630 vsl 50 256 0 24 0 1 \$0-OscUpTune empty Tune 0 -9
0 10 -261682 -1 -1 0 1;
#X obj -633 -630 vsl 50 256 -24 -1 0 1 \$0-OscDownTune empty Tune 0
-9 0 10 -234247 -1 -1 0 1;
#X obj -583 -630 vsl 50 256 0 0.8 0 1 \$0-OscDownMix empty Level 0
-9 0 10 -234247 -1 -1 10700 1;
#X obj 445 -567 vsl 50 256 0.1 1000 1 1 \$0-FiltLFORate empty Filter_LFO
0 -9 0 10 -222139 -1 -1 11500 1;
#X obj 509 -567 vsl 50 256 100 10000 1 1 \$0-FiltLFODepth empty Depth
0 -9 0 10 -222139 -1 -1 0 1;
#X obj 251 -790 hsl 256 30 2 2000 1 1 \$0-LPAttack empty LP_Attack
-2 -8 0 10 -262030 -1 -1 6100 1;
#X obj 252 -739 hsl 256 30 20 2000 1 1 \$0-LPDecay empty LP_Decay -2
-8 0 10 -262030 -1 -1 8800 1;
#X obj 252 -686 hsl 256 30 0.01 1 1 1 \$0-LPSustain empty LP_Sustain
-2 -8 0 10 -262030 -1 -1 25500 1;
#X floatatom 477 -806 5 0 0 0 - #0-LPAttack -, f 5;
#X floatatom 478 -755 5 0 0 0 - #0-LPDecay -, f 5;
#X obj 250 -826 hsl 256 15 5 10000 1 1 \$0-LPCutoff empty LP_Cutoff
-2 -8 0 10 -262030 -1 -1 25500 1;
#X floatatom -608 -648 3 0 0 0 - #0-ODTValue -, f 3;
#X floatatom -207 -648 3 0 0 0 - #0-OUTValue -, f 3;
#X obj -533 -630 vsl 50 256 0 1 0 1 \$0-OscSine empty Sine 0 -9 0 10
-184551 -1 -1 0 1;
#X obj -433 -630 vsl 50 256 0 1 0 1 \$0-OscPulse empty Pulse 0 -9 0
10 -184551 -1 -1 0 1;
#X obj -483 -630 vsl 50 256 0 1 0 1 \$0-OscSaw empty Saw 0 -9 0 10
-184551 -1 -1 25500 1;
#X obj 25 -772 vradio 15 1 0 3 \$0-OscDownType empty Down 0 -8 0 10
-262144 -1 -1 0;
#X obj 55 -772 vradio 15 1 0 3 \$0-OscUpType empty Up 0 -8 0 10 -262144
-1 -1 0;
#X obj 84 -772 vradio 15 1 0 3 \$0-OscFMType empty FM 0 -8 0 10 -262144
-1 -1 0;
#X text -216 -325 Sine;
#X text -215 -309 Sawtooth;
#X obj -234 -323 vradio 15 1 0 3 \$0-OscTypeLFO empty LFO 0 -8 0 10
-262144 -1 -1 0;
#X text -214 -294 Square;
