#N canvas 2 80 1299 624 10;
#X obj -949 -612 mtof;
#X obj 192 30 vline~;
#X obj -68 -595 clip 0 127;
#X obj -68 -565 / 127;
#X obj -68 -414 sel 0;
#X obj -41 -386 t f f;
#X obj -41 -263 pack f f f f f;
#X obj 79 -350 *;
#X msg -41 -239 \$1 \$2 \, \$3 \$4 \$5;
#X obj 200 -499 > 0;
#X obj 200 -478 sel 1 0;
#X obj 178 -443 t b b;
#X obj 192 -405 timer;
#X obj 261 -406 f;
#X obj 261 -375 +;
#X obj 192 -349 expr $f2-$f1;
#X obj 192 -322 t f f;
#X obj 192 -278 >= 0;
#X obj 192 -251 sel 0 1;
#X obj 192 -44 f;
#X msg 192 -18 0 \$1;
#X obj 336 -259 min;
#X obj 336 -219 min;
#X obj 211 -140 f;
#X obj 226 -170 *;
#X obj 308 -70 pack f f f;
#X msg 308 -46 \$1 \$2 \, 0 \$3 \$2;
#X obj -105 647 -~;
#X obj -105 592 *~ 1.5;
#X obj -33 615 *~ 0.5;
#X obj -104 738 *~;
#X obj 12 709 *~;
#X obj 12 682 abs~;
#X obj -33 592 expr~ pow($v1 \, 3);
#X obj 118 697 -~;
#X obj 119 593 *~ 1.5;
#X obj 177 616 *~ 0.5;
#X obj 177 593 expr~ pow($v1 \, 3);
#X obj 118 738 diode~;
#X obj -10 879 +~;
#X obj -10 983 -~;
#X obj -10 919 *~ 1.5;
#X obj 53 944 *~ 0.5;
#X obj 52 919 expr~ pow($v1 \, 3);
#X obj 118 818 *~;
#X obj -139 1587 outlet~;
#X obj -547 -782 t b f;
#X obj -562 -756 + 0;
#X obj -950 138 osc~;
#X obj -949 6 vline~;
#X obj -104 769 /~;
#X obj -104 819 *~;
#X obj -10 1009 *~ 0.5;
#X obj -562 -1170 inlet PitchVelADSR;
#X obj -1396 -438 t b b f f;
#X obj -1423 -383 -;
#X obj -1354 -383 +;
#X obj 471 -932 s \$0-RectifyVox;
#X obj 457 -911 s \$0-BlendVox;
#X obj 444 -890 s \$0-KVox;
#X obj 3 -692 s \$0-ReleaseVox;
#X obj -13 -668 s \$0-SustainVox;
#X obj -33 -644 s \$0-DecayVox;
#X obj -50 -619 s \$0-AttackVox;
#X obj 315 -691 s \$0-BendVox;
#X obj -547 -805 r \$0-BendVox;
#X obj 94 -376 r \$0-SustainVox;
#X obj -21 -349 r \$0-AttackVox;
#X obj 80 -318 r \$0-DecayVox;
#X obj 81 -288 r \$0-AttackVox;
#X obj 276 -438 r \$0-AttackVox;
#X obj 294 -406 r \$0-DecayVox;
#X obj 351 -288 r \$0-DecayVox;
#X obj 370 -259 r \$0-ReleaseVox;
#X obj 365 -93 r \$0-ReleaseVox;
#X obj 207 -70 r \$0-ReleaseVox;
#X obj 241 -193 r \$0-SustainVox;
#X obj 226 -217 r \$0-VelocityVox;
#X obj 50 682 r \$0-KVox;
#X obj 151 697 r \$0-RectifyVox;
#X obj 133 767 r \$0-BlendVox;
#X obj -89 794 r \$0-BlendVox;
#X obj -89 683 r \$0-KVox;
#X obj 133 793 expr (1-$f1);
#X obj -1287 140 r \$0-FMDepthVox;
#X obj 415 -846 s \$0-FMDepthVox;
#X obj -1494 163 expr~ ($v1+$v4*($v2+$v3))*(1-$v4/4);
#X obj -89 709 expr 1+$f1;
#X obj -186 -29 / 2;
#X obj -101 401 r \$0-SubLevelVox;
#X obj 329 -713 s \$0-SubLevelVox;
#X obj 12 737 +~ 1;
#X obj -1174 238 expr~ (($v1*($v2))+$v3*(1-($v2)))*0.95;
#X obj -272 424 expr~ ($v1+$v3*$v2)*(1-$v3/3);
#X obj 315 -1170 inlet Realtime;
#X obj 14 -716 s \$0-FMAttackVox;
#X obj 27 -740 s \$0-FMDecayVox;
#X obj 39 -762 s \$0-FMSustainVox;
#X obj -54 -504 s \$0-ADStrig;
#X obj -1335 -126 sel 0;
#X obj -1308 -98 t f f;
#X obj -1308 25 pack f f f f f;
#X obj -1181 -62 *;
#X msg -1308 49 \$1 \$2 \, \$3 \$4 \$5;
#X obj -1308 73 vline~;
#X obj -1288 -61 r \$0-FMAttackVox;
#X obj -1166 -88 r \$0-FMSustainVox;
#X obj -1187 -30 r \$0-FMDecayVox;
#X obj -1186 0 r \$0-FMAttackVox;
#X obj -1335 -148 r \$0-ADStrig;
#X obj -1424 138 *~;
#X obj -1355 138 *~;
#X obj -914 37 phasor~;
#X obj -914 138 expr~ $v1*2-1;
#X obj -809 37 r \$0-PulseWidthVox;
#X obj -949 207 expr~ $v1*$v4+$v2*$v5+$v3*$v6;
#X obj 429 -868 s \$0-PulseWidthVox;
#X obj -824 86 <~;
#X obj -187 128 osc~;
#X obj -186 -4 vline~;
#X obj -151 27 phasor~;
#X obj -151 128 expr~ $v1*2-1;
#X msg 17 128 0;
#X msg -14 128 1;
#X msg 78 128 0;
#X msg 47 128 1;
#X obj 135 79 loadbang;
#X obj -46 27 r \$0-PulseWidthVox;
#X obj 44 76 sel 0 1 2;
#X obj -186 197 expr~ $v1*$v4+$v2*$v5+$v3*$v6;
#X msg 108 128 1;
#X msg 139 128 0;
#X obj -61 76 <~;
#X obj -2111 -40 osc~;
#X obj -2110 -172 vline~;
#X obj -2075 -141 phasor~;
#X obj -2075 -40 expr~ $v1*2-1;
#X msg -1907 -40 0;
#X msg -1938 -40 1;
#X msg -1846 -40 0;
#X msg -1877 -40 1;
#X obj -1789 -89 loadbang;
#X obj -1985 -40 hip~ 5;
#X obj -1970 -141 r \$0-PulseWidthVox;
#X obj -1880 -92 sel 0 1 2;
#X obj -2110 29 expr~ $v1*$v4+$v2*$v5+$v3*$v6;
#X msg -1816 -40 1;
#X msg -1785 -40 0;
#X obj -1985 -92 <~;
#X obj -1733 -40 osc~;
#X obj -1732 -172 vline~;
#X obj -1697 -141 phasor~;
#X obj -1697 -40 expr~ $v1*2-1;
#X msg -1529 -40 0;
#X msg -1560 -40 1;
#X msg -1468 -40 0;
#X msg -1499 -40 1;
#X obj -1411 -89 loadbang;
#X obj -1607 -40 hip~ 5;
#X obj -1592 -141 r \$0-PulseWidthVox;
#X obj -1502 -92 sel 0 1 2;
#X obj -1732 29 expr~ $v1*$v4+$v2*$v5+$v3*$v6;
#X msg -1438 -40 1;
#X msg -1407 -40 0;
#X obj -1607 -92 <~;
#X obj -1355 -240 osc~;
#X obj -1354 -358 vline~;
#X obj -1319 -327 phasor~;
#X obj -1319 -240 expr~ $v1*2-1;
#X msg -1151 -240 0;
#X msg -1182 -240 1;
#X msg -1090 -240 0;
#X msg -1121 -240 1;
#X obj -1033 -289 loadbang;
#X obj -1229 -240 hip~ 5;
#X obj -1214 -341 r \$0-PulseWidthVox;
#X obj -1124 -292 sel 0 1 2;
#X obj -1354 -171 expr~ $v1*$v4+$v2*$v5+$v3*$v6;
#X msg -1060 -240 1;
#X msg -1029 -240 0;
#X obj -1229 -292 <~;
#X obj -1384 -560 expr int($f1)/12;
#X obj -1501 -489 expr $f1*pow(2 \, $f2);
#X obj -563 138 osc~;
#X obj -562 6 vline~;
#X obj -527 37 phasor~;
#X obj -527 138 expr~ $v1*2-1;
#X msg -359 138 0;
#X msg -390 138 1;
#X msg -298 138 0;
#X msg -329 138 1;
#X obj -241 89 loadbang;
#X obj -422 37 r \$0-PulseWidthVox;
#X obj -332 86 sel 0 1 2;
#X obj -562 207 expr~ $v1*$v4+$v2*$v5+$v3*$v6;
#X msg -268 138 1;
#X msg -237 138 0;
#X obj -437 86 <~;
#X obj -647 345 expr~ ($v1+$v3*$v2)*(1-$v3/3);
#X obj -1396 -460 r \$0-FMVox;
#X obj 401 -823 s \$0-FMVox;
#X obj 372 -779 s \$0-OscUpMixVox;
#X obj 343 -735 s \$0-OscDownMixVox;
#X obj 358 -757 s \$0-OscDownTuneVox;
#X obj -445 -43 expr int($f1)/12;
#X obj -562 -20 expr $f1*pow(2 \, $f2);
#X obj -949 -592 t f f f f;
#X obj -476 322 r \$0-OscDownMixVox;
#X obj -1062 214 r \$0-OscUpMixVox;
#X obj -445 -65 r \$0-OscDownTuneVox;
#X obj -1384 -582 r \$0-OscUpTuneVox;
#X obj 386 -801 s \$0-OscUpTuneVox;
#X obj -124 1082 sel 0;
#X obj -97 1141 t f f;
#X obj -97 1264 pack f f f f f;
#X obj 37 1178 *;
#X msg -97 1288 \$1 \$2 \, \$3 \$4 \$5;
#X obj -124 1061 r \$0-ADStrig;
#X obj -97 1312 vline~;
#X obj -139 1563 clip~ -1 1;
#X msg -97 1121 1;
#X obj -97 1101 bang;
#X obj -139 1539 lop~;
#X obj -98 1477 +;
#X obj -98 1502 clip 5 20000;
#X obj -98 1380 snapshot~;
#X obj -86 1356 metro 0.1;
#X obj -86 1335 loadbang;
#X obj -562 -1148 unpack f f f f f f f f f f f f f;
#X obj -98 1431 * 10000;
#X obj 52 1152 r \$0-LPSustainVox;
#X obj -77 1178 r \$0-LPAttackVox;
#X obj 31 1210 r \$0-LPDecayVox;
#X obj 32 1240 r \$0-LPAttackVox;
#X obj -83 1456 r \$0-LPCutoffVox;
#X obj 83 -863 s \$0-LPSustainVox;
#X obj 68 -838 s \$0-LPDecayVox;
#X obj 57 -813 s \$0-LPAttackVox;
#X obj 44 -789 s \$0-LPCutoffVox;
#X obj 486 -954 s \$0-OscSineVox;
#X obj 500 -976 s \$0-OscSawVox;
#X obj 514 -998 s \$0-OscPulseVox;
#X obj -774 138 r \$0-OscSineVox;
#X obj -768 161 r \$0-OscSawVox;
#X obj -759 184 r \$0-OscPulseVox;
#X obj -332 63 r \$0-OscDownTypeVox;
#X obj 44 53 r \$0-OscSubTypeVox;
#X obj -1880 -115 r \$0-OscUpTypeVox;
#X obj -1502 -115 r \$0-OscFMTypeVox;
#X obj -1124 -315 r \$0-OscFMTypeVox;
#X obj 528 -1020 s \$0-OscSubTypeVox;
#X obj 543 -1042 s \$0-OscDownTypeVox;
#X obj 571 -1084 s \$0-OscFMTypeVox;
#X obj 557 -1063 s \$0-OscUpTypeVox;
#X obj -98 1405 expr (pow(30 \, $f1)-1)/29;
#X obj -824 138 hip~ 5;
#X obj -437 138 hip~ 5;
#X obj -61 128 hip~ 5;
#X obj -139 1010 expr pow(0.5 \, $f1);
#X obj -139 1035 expr~ $v1*int($v2/$v1);
#X obj -139 984 r \$0-BitDepth;
#X obj 585 -1105 s \$0-BitDepth;
#X obj 315 -1147 unpack f f f f f f f f f f f f f f f f f f f f f;
#X obj 600 -1126 s \$0-Gain;
#X obj 242 506 r \$0-Gain;
#X obj 143 529 expr~ $v1*$v2*$v3;
#X text -533 496 // hard clip of input signal function HardClip(s \,
thresh)( 0.5 * (abs(s + thresh) - abs(s - thresh)) \; ) \; // cubic
soft clip function function SoftCubicClip(s \, thresh)( threshInv =
1 / thresh \; threshInv * ((thresh * 1.5 * HardClip(s \, thresh))
- (0.5 * HardClip(s \, thresh)^3 * threshInv)) \; ) \; // use this
to process audio via the SoftCubicClip algorithm function SoftCubic(sbuf)(
SoftCubicClip(sbuf \, slider6) + (slider7 * SoftCubicClip(abs(sbuf)
\, slider6)) \; ) \; // soft clip function with adjustable knee function
SKClip(s \, knee)( s / (knee * abs(s) + 1) \; ) \; // use this to
process audio via the SKClip algorithm function SoftKnee(sbuf)( SKClip(sbuf
\, slider5) + ((slider5 / 2) * SKClip(abs(sbuf) \, slider5)) \; )
\; // use this to process audio via the leaky integrator algorithm
function LeakyInt(sbuf \, NLD)( sbuf > NLD ? ( ((1 - slider3) * sbuf)
+ (slider3 * NLD) \; ) : ( ((1 - slider4) * sbuf) + (slider4 * NLD)
\; ) \; ) \; // selects correct NLD algorithm based upon user input
selection function waveshape(sbuf \, NLD)( slider2 > 0 ? ( slider2
> 1 ? ( invsqrt(2) * SoftCubic(sbuf) \; ) : ( SoftKnee(sbuf) \; )
\; ) : ( NLD = invsqrt(2) * LeakyInt(sbuf \, NLD) \; ) \; ) \; 
;
#X text 104 852 Diode~ can be replaced by: expr~ ((1-$v3)*$v1)-($v2*$v3)
where $v1 is the original signal \, $v2 is the output of abs~ \, and
$v3 is a control value between 0 and 1;
#X connect 0 0 206 0;
#X connect 1 0 265 1;
#X connect 2 0 3 0;
#X connect 3 0 4 0;
#X connect 3 0 9 0;
#X connect 3 0 98 0;
#X connect 4 1 5 0;
#X connect 5 0 6 0;
#X connect 5 1 7 0;
#X connect 6 0 8 0;
#X connect 7 0 6 2;
#X connect 8 0 1 0;
#X connect 9 0 10 0;
#X connect 10 0 11 0;
#X connect 10 1 12 1;
#X connect 11 0 12 0;
#X connect 11 1 13 0;
#X connect 12 0 15 0;
#X connect 13 0 14 0;
#X connect 14 0 15 1;
#X connect 15 0 16 0;
#X connect 16 0 17 0;
#X connect 16 1 21 0;
#X connect 17 0 18 0;
#X connect 18 0 19 0;
#X connect 18 1 23 0;
#X connect 19 0 20 0;
#X connect 20 0 1 0;
#X connect 21 0 22 0;
#X connect 22 0 25 1;
#X connect 23 0 25 0;
#X connect 24 0 23 1;
#X connect 25 0 26 0;
#X connect 26 0 1 0;
#X connect 27 0 32 0;
#X connect 27 0 30 0;
#X connect 28 0 27 0;
#X connect 29 0 27 1;
#X connect 30 0 50 0;
#X connect 31 0 91 0;
#X connect 32 0 31 0;
#X connect 33 0 29 0;
#X connect 34 0 38 0;
#X connect 35 0 34 0;
#X connect 36 0 34 1;
#X connect 37 0 36 0;
#X connect 38 0 44 0;
#X connect 39 0 41 0;
#X connect 39 0 43 0;
#X connect 40 0 52 0;
#X connect 41 0 40 0;
#X connect 42 0 40 1;
#X connect 43 0 42 0;
#X connect 44 0 39 1;
#X connect 46 0 47 0;
#X connect 46 1 47 1;
#X connect 47 0 0 0;
#X connect 48 0 115 0;
#X connect 49 0 48 0;
#X connect 49 0 112 0;
#X connect 50 0 51 0;
#X connect 51 0 39 0;
#X connect 52 0 259 1;
#X connect 53 0 228 0;
#X connect 54 0 55 0;
#X connect 54 1 56 0;
#X connect 54 2 55 1;
#X connect 54 3 56 1;
#X connect 55 0 150 0;
#X connect 56 0 166 0;
#X connect 65 0 46 0;
#X connect 66 0 7 1;
#X connect 67 0 6 1;
#X connect 68 0 6 3;
#X connect 69 0 6 4;
#X connect 70 0 13 1;
#X connect 71 0 14 1;
#X connect 72 0 21 1;
#X connect 73 0 22 1;
#X connect 74 0 25 2;
#X connect 75 0 19 1;
#X connect 76 0 24 1;
#X connect 77 0 24 0;
#X connect 78 0 31 1;
#X connect 79 0 38 1;
#X connect 80 0 83 0;
#X connect 81 0 51 1;
#X connect 82 0 87 0;
#X connect 83 0 44 1;
#X connect 84 0 86 3;
#X connect 86 0 92 0;
#X connect 87 0 30 1;
#X connect 88 0 119 0;
#X connect 89 0 93 2;
#X connect 91 0 50 1;
#X connect 92 0 198 0;
#X connect 93 0 265 0;
#X connect 94 0 262 0;
#X connect 99 1 100 0;
#X connect 100 0 101 0;
#X connect 100 1 102 0;
#X connect 101 0 103 0;
#X connect 102 0 101 2;
#X connect 103 0 104 0;
#X connect 104 0 111 1;
#X connect 104 0 110 1;
#X connect 105 0 101 1;
#X connect 106 0 102 1;
#X connect 107 0 101 3;
#X connect 108 0 101 4;
#X connect 109 0 99 0;
#X connect 110 0 86 1;
#X connect 111 0 86 2;
#X connect 112 0 113 0;
#X connect 112 0 117 0;
#X connect 113 0 115 1;
#X connect 114 0 117 1;
#X connect 115 0 92 2;
#X connect 117 0 255 0;
#X connect 118 0 129 0;
#X connect 119 0 118 0;
#X connect 119 0 120 0;
#X connect 120 0 121 0;
#X connect 120 0 132 0;
#X connect 121 0 129 1;
#X connect 122 0 129 3;
#X connect 123 0 129 3;
#X connect 124 0 129 4;
#X connect 125 0 129 4;
#X connect 126 0 123 0;
#X connect 126 0 124 0;
#X connect 126 0 131 0;
#X connect 127 0 132 1;
#X connect 128 0 123 0;
#X connect 128 0 124 0;
#X connect 128 0 131 0;
#X connect 128 1 122 0;
#X connect 128 1 125 0;
#X connect 128 1 131 0;
#X connect 128 2 122 0;
#X connect 128 2 124 0;
#X connect 128 2 130 0;
#X connect 129 0 93 1;
#X connect 130 0 129 5;
#X connect 131 0 129 5;
#X connect 132 0 257 0;
#X connect 133 0 145 0;
#X connect 134 0 133 0;
#X connect 134 0 135 0;
#X connect 135 0 136 0;
#X connect 135 0 148 0;
#X connect 136 0 145 1;
#X connect 137 0 145 3;
#X connect 138 0 145 3;
#X connect 139 0 145 4;
#X connect 140 0 145 4;
#X connect 141 0 138 0;
#X connect 141 0 139 0;
#X connect 141 0 147 0;
#X connect 142 0 145 2;
#X connect 143 0 148 1;
#X connect 144 0 138 0;
#X connect 144 0 139 0;
#X connect 144 0 147 0;
#X connect 144 1 137 0;
#X connect 144 1 140 0;
#X connect 144 1 147 0;
#X connect 144 2 137 0;
#X connect 144 2 139 0;
#X connect 144 2 146 0;
#X connect 145 0 86 0;
#X connect 146 0 145 5;
#X connect 147 0 145 5;
#X connect 148 0 142 0;
#X connect 149 0 161 0;
#X connect 150 0 149 0;
#X connect 150 0 151 0;
#X connect 151 0 152 0;
#X connect 151 0 164 0;
#X connect 152 0 161 1;
#X connect 153 0 161 3;
#X connect 154 0 161 3;
#X connect 155 0 161 4;
#X connect 156 0 161 4;
#X connect 157 0 154 0;
#X connect 157 0 155 0;
#X connect 157 0 163 0;
#X connect 158 0 161 2;
#X connect 159 0 164 1;
#X connect 160 0 154 0;
#X connect 160 0 155 0;
#X connect 160 0 163 0;
#X connect 160 1 153 0;
#X connect 160 1 156 0;
#X connect 160 1 163 0;
#X connect 160 2 153 0;
#X connect 160 2 155 0;
#X connect 160 2 162 0;
#X connect 161 0 110 0;
#X connect 162 0 161 5;
#X connect 163 0 161 5;
#X connect 164 0 158 0;
#X connect 165 0 177 0;
#X connect 166 0 165 0;
#X connect 166 0 167 0;
#X connect 167 0 168 0;
#X connect 167 0 180 0;
#X connect 168 0 177 1;
#X connect 169 0 177 3;
#X connect 170 0 177 3;
#X connect 171 0 177 4;
#X connect 172 0 177 4;
#X connect 173 0 170 0;
#X connect 173 0 171 0;
#X connect 173 0 179 0;
#X connect 174 0 177 2;
#X connect 175 0 180 1;
#X connect 176 0 170 0;
#X connect 176 0 171 0;
#X connect 176 0 179 0;
#X connect 176 1 169 0;
#X connect 176 1 172 0;
#X connect 176 1 179 0;
#X connect 176 2 169 0;
#X connect 176 2 171 0;
#X connect 176 2 178 0;
#X connect 177 0 111 0;
#X connect 178 0 177 5;
#X connect 179 0 177 5;
#X connect 180 0 174 0;
#X connect 181 0 182 1;
#X connect 182 0 55 0;
#X connect 182 0 56 0;
#X connect 182 0 134 0;
#X connect 183 0 194 0;
#X connect 184 0 183 0;
#X connect 184 0 185 0;
#X connect 185 0 186 0;
#X connect 185 0 197 0;
#X connect 186 0 194 1;
#X connect 187 0 194 3;
#X connect 188 0 194 3;
#X connect 189 0 194 4;
#X connect 190 0 194 4;
#X connect 191 0 188 0;
#X connect 191 0 189 0;
#X connect 191 0 196 0;
#X connect 192 0 197 1;
#X connect 193 0 188 0;
#X connect 193 0 189 0;
#X connect 193 0 196 0;
#X connect 193 1 187 0;
#X connect 193 1 190 0;
#X connect 193 1 196 0;
#X connect 193 2 187 0;
#X connect 193 2 189 0;
#X connect 193 2 195 0;
#X connect 194 0 198 1;
#X connect 195 0 194 5;
#X connect 196 0 194 5;
#X connect 197 0 256 0;
#X connect 198 0 93 0;
#X connect 199 0 54 0;
#X connect 204 0 205 1;
#X connect 205 0 184 0;
#X connect 206 0 182 0;
#X connect 206 1 49 0;
#X connect 206 2 205 0;
#X connect 206 3 88 0;
#X connect 207 0 198 2;
#X connect 208 0 92 1;
#X connect 209 0 204 0;
#X connect 210 0 181 0;
#X connect 212 1 221 0;
#X connect 213 0 214 0;
#X connect 213 1 215 0;
#X connect 214 0 216 0;
#X connect 215 0 214 2;
#X connect 216 0 218 0;
#X connect 217 0 212 0;
#X connect 218 0 225 0;
#X connect 219 0 45 0;
#X connect 220 0 213 0;
#X connect 221 0 220 0;
#X connect 222 0 219 0;
#X connect 223 0 224 0;
#X connect 224 0 222 1;
#X connect 225 0 254 0;
#X connect 226 0 225 0;
#X connect 227 0 226 0;
#X connect 228 0 47 0;
#X connect 228 1 2 0;
#X connect 228 2 63 0;
#X connect 228 3 62 0;
#X connect 228 4 61 0;
#X connect 228 5 60 0;
#X connect 228 6 95 0;
#X connect 228 7 96 0;
#X connect 228 8 97 0;
#X connect 228 9 238 0;
#X connect 228 10 237 0;
#X connect 228 11 236 0;
#X connect 228 12 235 0;
#X connect 229 0 223 0;
#X connect 230 0 215 1;
#X connect 231 0 214 1;
#X connect 232 0 214 3;
#X connect 233 0 214 4;
#X connect 234 0 223 1;
#X connect 242 0 115 3;
#X connect 243 0 115 4;
#X connect 244 0 115 5;
#X connect 245 0 193 0;
#X connect 246 0 128 0;
#X connect 247 0 144 0;
#X connect 248 0 160 0;
#X connect 249 0 176 0;
#X connect 254 0 229 0;
#X connect 255 0 115 2;
#X connect 256 0 194 2;
#X connect 257 0 129 2;
#X connect 258 0 259 0;
#X connect 259 0 222 0;
#X connect 260 0 258 0;
#X connect 262 0 64 0;
#X connect 262 1 90 0;
#X connect 262 2 202 0;
#X connect 262 3 203 0;
#X connect 262 4 201 0;
#X connect 262 5 211 0;
#X connect 262 6 200 0;
#X connect 262 7 85 0;
#X connect 262 8 116 0;
#X connect 262 9 59 0;
#X connect 262 10 58 0;
#X connect 262 11 57 0;
#X connect 262 12 239 0;
#X connect 262 13 240 0;
#X connect 262 14 241 0;
#X connect 262 15 250 0;
#X connect 262 16 251 0;
#X connect 262 17 253 0;
#X connect 262 18 252 0;
#X connect 262 19 261 0;
#X connect 262 20 263 0;
#X connect 264 0 265 2;
#X connect 265 0 37 0;
#X connect 265 0 35 0;
#X connect 265 0 33 0;
#X connect 265 0 28 0;
