#N canvas 552 180 451 378 10;
#X obj 22 310 hip~ 22;
#X obj 22 236 WSVox;
#X obj 62 236 WSVox;
#X obj 22 334 outlet~;
#X obj 36 4 inlet MidiPitchVelADSR;
#X obj 347 4 inlet RealtimeUI;
#N canvas 183 199 274 104 SoftLimiter 0;
#X obj 8 6 inlet~;
#X obj 8 52 outlet~;
#X obj 8 29 expr~ (1.5*$v1)-(pow($v1 \, 3)*0.5);
#X connect 0 0 2 0;
#X connect 2 0 1 0;
#X restore 22 287 pd SoftLimiter;
#X obj 22 92 pack f f f f f f f f f f f f f f;
#X obj 36 29 unpack f f f f f f f f f f f f f;
#X obj 22 264 +~;
#X obj 22 117 route 1 2;
#X obj 6 62 poly 2 1;
#X connect 0 0 3 0;
#X connect 1 0 9 0;
#X connect 2 0 9 1;
#X connect 4 0 8 0;
#X connect 5 0 1 1;
#X connect 5 0 2 1;
#X connect 6 0 0 0;
#X connect 7 0 10 0;
#X connect 8 0 11 0;
#X connect 8 1 11 1;
#X connect 8 2 7 3;
#X connect 8 3 7 4;
#X connect 8 4 7 5;
#X connect 8 5 7 6;
#X connect 8 6 7 7;
#X connect 8 7 7 8;
#X connect 8 8 7 9;
#X connect 8 9 7 10;
#X connect 8 10 7 11;
#X connect 8 11 7 12;
#X connect 8 12 7 13;
#X connect 9 0 6 0;
#X connect 10 0 1 0;
#X connect 10 1 2 0;
#X connect 11 0 7 0;
#X connect 11 1 7 1;
#X connect 11 2 7 2;
