#N canvas 366 223 273 211 10;
#X obj 43 176 dac~;
#X obj 58 108 line~;
#X obj 58 86 pack f 10;
#X obj 112 30 hsl 128 15 0.001 1 1 1 empty empty Volume -2 -8 0 10
-262144 -1 -1 0 1;
#X obj 43 130 *~;
#X obj 43 29 inlet~;
#X obj 43 151 spigot~;
#X obj 125 86 <= 0.001;
#X connect 1 0 4 1;
#X connect 2 0 1 0;
#X connect 3 0 2 0;
#X connect 3 0 7 0;
#X connect 4 0 6 0;
#X connect 5 0 4 0;
#X connect 6 0 0 0;
#X connect 6 0 0 1;
#X connect 7 0 6 1;
#X coords 0 -1 1 1 155 40 2 100 15;
