#N canvas 981 266 846 380 10;
#X floatatom 217 12 8 0 0 0 - #0-durationMax -, f 8;
#X floatatom 217 -23 8 0 0 0 - #0-durationMin -, f 8;
#X floatatom 215 -58 5 0 0 0 - #0-baseOctaveRounded -, f 5;
#X obj 11 -171 inlet~;
#X text 9 -190 CLOCK IN;
#X obj 298 -169 inlet~;
#X obj 737 -96 snapshot~;
#X obj 776 -122 bang~;
#X text 297 -188 PITCH(PRE-Q);
#X obj 737 -169 inlet~;
#X text 734 -190 PITCHBEND(POST-Q);
#X obj 480 -168 inlet~;
#X text 473 -188 VELOCITY;
#X obj 590 -169 inlet~;
#X text 586 -190 DURATION;
#X obj 737 -147 *~ 63;
#X obj 737 -122 +~ 63;
#X obj 737 82 outlet;
#X obj 11 -62 hsl 200 20 0 10 0 1 \$0-baseOctave empty Octave 2 -8
0 10 -262144 -1 -1 9800 1;
#X obj 331 -105 r \$0-baseOctave;
#X obj 331 -85 + 0.5;
#X obj 331 -65 int;
#X obj 338 -41 s \$0-baseOctaveRounded;
#X obj 11 -129 s \$0-clockRise;
#X obj 298 -127 snapshot~;
#X obj 309 -148 r \$0-clockRise;
#X obj 292 -85 * 127;
#X obj 480 -126 snapshot~;
#X obj 491 -147 r \$0-clockRise;
#X obj 590 -126 snapshot~;
#X obj 601 -147 r \$0-clockRise;
#X obj 12 -27 hsl 200 20 1 5000 1 1 \$0-durationMin \$0-durationSetMin
Duration\ [Min] 2 -8 0 10 -262144 -1 -1 9650 1;
#X obj 12 8 hsl 200 20 20 10000 1 1 \$0-durationMax \$0-durationSetMax
Duration\ [Max] 2 -8 0 10 -262144 -1 -1 12110 1;
#X obj 4 64 r \$0-durationMin;
#X obj 37 84 r \$0-durationMax;
#X obj 4 156 spigot;
#X obj 4 176 s \$0-durationSetMax;
#X obj 145 157 spigot;
#X obj 145 64 r \$0-durationMax;
#X obj 178 84 r \$0-durationMin;
#X obj 145 177 s \$0-durationSetMin;
#X text 5 -93 CLOCK;
#X text 50 -93 PITCH;
#X text 96 -93 VELOCITY;
#X text 156 -93 DURATION;
#X text 215 -93 PITCHBEND;
#X obj 627 -27 -;
#X obj 627 -63 t b f;
#X obj 602 -105 r \$0-durationMax;
#X obj 627 -84 r \$0-durationMin;
#X obj 590 -3 *;
#X obj 590 37 +;
#X obj 605 17 r \$0-durationMin;
#X obj 590 82 outlet;
#X obj 480 -105 * 127;
#X obj 292 79 outlet;
#X obj 480 83 outlet;
#X text 5 36 PITCH;
#X text 67 36 VELOCITY;
#X text 148 36 DURATION;
#X text 214 36 PITCHBEND;
#X obj 292 6 +;
#X obj 331 -21 * 12;
#X obj 292 58 clip 0 127;
#X obj 480 62 clip 0 127;
#X obj 737 61 clip 0 127;
#X obj 590 61 clip 10 10000;
#X obj 37 136 >=;
#X obj 178 136 <=;
#X obj 4 136 + 1;
#X obj 37 105 t b f;
#X obj 178 105 t b f;
#X obj 145 136 - 1;
#X obj 4 84 + 9;
#X obj 145 84 - 9;
#X obj 11 -151 threshold~ 0.99 0 1 0;
#X connect 3 0 75 0;
#X connect 5 0 24 0;
#X connect 6 0 65 0;
#X connect 7 0 6 0;
#X connect 9 0 15 0;
#X connect 11 0 27 0;
#X connect 13 0 29 0;
#X connect 15 0 16 0;
#X connect 16 0 6 0;
#X connect 19 0 20 0;
#X connect 20 0 21 0;
#X connect 21 0 22 0;
#X connect 21 0 62 0;
#X connect 24 0 26 0;
#X connect 25 0 24 0;
#X connect 26 0 61 0;
#X connect 27 0 54 0;
#X connect 28 0 27 0;
#X connect 29 0 50 0;
#X connect 30 0 29 0;
#X connect 33 0 73 0;
#X connect 34 0 70 0;
#X connect 35 0 36 0;
#X connect 37 0 40 0;
#X connect 38 0 74 0;
#X connect 39 0 71 0;
#X connect 46 0 50 1;
#X connect 47 0 46 0;
#X connect 47 1 46 1;
#X connect 48 0 46 0;
#X connect 49 0 47 0;
#X connect 50 0 51 0;
#X connect 51 0 66 0;
#X connect 52 0 51 1;
#X connect 54 0 64 0;
#X connect 61 0 63 0;
#X connect 62 0 61 1;
#X connect 63 0 55 0;
#X connect 64 0 56 0;
#X connect 65 0 17 0;
#X connect 66 0 53 0;
#X connect 67 0 35 1;
#X connect 68 0 37 1;
#X connect 69 0 35 0;
#X connect 70 0 67 0;
#X connect 70 1 67 1;
#X connect 71 0 68 0;
#X connect 71 1 68 1;
#X connect 72 0 37 0;
#X connect 73 0 67 0;
#X connect 73 0 69 0;
#X connect 74 0 68 0;
#X connect 74 0 72 0;
#X connect 75 0 23 0;
#X coords 0 -1 1 1 270 150 2 4 -95;
